<svg width="100%" height="604" viewBox="0 0 1972 604" fill="none" xmlns="http://www.w3.org/2000/svg">
<g clip-path="url(#clip0_17_4)">
<rect width="100%" height="604" fill="#EFEFEF"/>
<path d="M164.507 524.379C164.483 552.219 156.344 573.672 140.091 588.738C124.418 603.804 103.822 611.326 78.302 611.304C52.202 611.282 31.0385 603.724 14.8115 588.63C-1.4155 573.536 -9.51702 552.069 -9.49304 524.229L-9.34169 348.489L66.3483 348.554L66.1962 525.164C66.1862 536.764 69.9512 542.567 77.4912 542.574C85.0312 542.58 88.8062 536.783 88.8162 525.183L89.271 -2.90641L164.961 -2.84122L164.507 524.379ZM358.218 524.545C358.194 552.385 350.055 573.838 333.802 588.904C318.129 603.971 297.533 611.493 272.013 611.471C245.913 611.449 224.749 603.891 208.522 588.797C192.295 573.703 184.194 552.236 184.218 524.396L184.672 -2.82424L260.362 -2.75906L259.907 525.331C259.897 536.931 263.662 542.734 271.202 542.741C278.742 542.747 282.517 536.95 282.527 525.35L282.982 -2.73958L358.672 -2.67439L358.218 524.545ZM591.008 606.526L494.438 606.443L435.694 123.542L433.954 123.541L445.092 323.65L449.198 606.404L377.858 606.342L378.383 -2.65741L474.083 -2.57499L533.698 479.457L535.438 479.458L523.427 282.828L520.193 -2.53528L591.533 -2.47384L591.008 606.526ZM785.777 285.664L785.501 606.693L709.811 606.628L709.841 571.828L708.101 571.827C704.029 585.163 698.22 595.308 690.674 602.262C683.129 608.635 674.426 611.818 664.566 611.809C648.906 611.796 636.153 604.245 626.306 589.156C616.459 574.068 611.547 552.604 611.571 524.764L611.955 79.3238C611.978 52.0638 620.117 30.9008 636.37 15.8348C653.203 0.189288 674.38 -7.62248 699.9 -7.6005C725.42 -7.57852 746.003 -0.0207854 761.65 15.0727C777.877 30.1667 785.979 51.6337 785.955 79.4737L785.827 228.244L710.137 228.178L710.266 78.5384C710.276 66.9385 706.511 61.1352 698.971 61.1287C690.851 61.1217 686.786 66.9182 686.776 78.5182L686.388 528.308C686.378 539.908 690.433 545.712 698.553 545.719C706.093 545.725 709.869 539.348 709.88 526.588L710.028 354.328L698.718 354.319L698.777 285.589L785.777 285.664ZM977.542 525.079C977.518 552.919 969.38 574.372 953.127 589.438C937.454 604.504 916.567 612.026 890.467 612.004C864.367 611.981 843.204 604.423 826.977 589.329C811.33 574.236 803.518 552.769 803.542 524.929L803.656 392.689L879.346 392.754L879.231 525.864C879.221 537.464 882.986 543.267 890.526 543.274C898.646 543.281 902.711 537.484 902.721 525.884L902.813 419.744C902.83 399.444 898.207 380.01 888.943 361.442C879.679 342.874 869.255 324.016 857.672 304.866C851.301 294.42 844.93 283.685 838.559 272.659C832.189 261.054 826.4 249.159 821.19 236.974C815.981 224.79 811.641 212.316 808.172 199.553C805.284 186.21 803.846 172.289 803.858 157.789L803.926 79.4891C803.949 52.2291 812.087 31.0661 828.34 16.0001C844.594 0.35412 865.771 -7.45765 891.871 -7.43517C917.971 -7.41269 938.844 0.145295 954.491 15.2388C970.138 30.3323 977.95 51.799 977.926 79.639L977.835 184.909L903.015 184.845L903.106 78.7045C903.116 67.1045 899.061 61.301 890.941 61.2941C883.401 61.2876 879.626 67.0843 879.616 78.6843L879.548 157.854C879.531 178.154 884.154 197.588 893.418 216.156C902.682 234.724 913.106 253.583 924.689 272.733C937.431 294.204 949.301 316.834 960.301 340.624C971.881 363.834 977.658 390.229 977.633 419.809L977.542 525.079ZM1169.59 525.244C1169.57 553.084 1161.43 574.537 1145.18 589.603C1129.51 604.67 1108.91 612.192 1083.39 612.17C1057.29 612.148 1036.13 604.589 1019.9 589.495C1004.25 574.402 996.441 552.935 996.464 525.095L996.848 79.6553C996.872 52.3953 1005.01 31.2323 1021.26 16.1663C1037.52 0.520271 1058.4 -7.29175 1083.92 -7.26977C1110.02 -7.24729 1130.9 0.310697 1146.54 15.4042C1162.19 30.4977 1170 51.9644 1169.98 79.8044L1169.59 525.244ZM1095.16 78.8699C1095.17 67.2699 1091.11 61.4664 1082.99 61.4595C1075.45 61.453 1071.68 67.2497 1071.67 78.8497L1071.28 526.03C1071.27 537.63 1075.04 543.433 1082.58 543.439C1090.7 543.446 1094.76 537.65 1094.77 526.05L1095.16 78.8699ZM1363.23 607.191L1288.41 607.127L1288.65 337.427L1265.16 337.406L1264.92 607.106L1190.1 607.042L1190.63 -2.82787L1265.45 -2.76343L1265.22 268.676L1288.71 268.697L1288.94 -2.7432L1363.76 -2.67877L1363.23 607.191ZM1506.66 407.214L1506.49 607.314L1430.8 607.249L1430.97 407.149L1373.03 -1.80079L1450.46 -1.73411L1464.2 207.948L1467.6 294.951L1469.34 294.952L1472.9 207.955L1487.87 -1.70189L1565.3 -1.6352L1506.66 407.214ZM1749.03 525.743C1749 553.583 1740.87 575.036 1724.61 590.102C1708.94 605.169 1688.34 612.691 1662.82 612.669C1636.72 612.647 1615.56 605.088 1599.33 589.994C1583.11 574.9 1575 553.433 1575.03 525.593L1575.48 -1.62643L1651.17 -1.56125L1650.72 526.529C1650.71 538.129 1654.47 543.932 1662.01 543.938C1669.55 543.945 1673.33 538.148 1673.34 526.548L1673.79 -1.54177L1749.48 -1.47658L1749.03 525.743ZM1981.82 607.724L1885.25 607.641L1826.5 124.74L1824.76 124.738L1835.9 324.848L1840.01 607.602L1768.67 607.54L1769.19 -1.4596L1864.89 -1.37718L1924.51 480.654L1926.25 480.656L1914.24 284.025L1911 -1.33747L1982.34 -1.27603L1981.82 607.724Z" fill="#0B0B0B"/>
</g>
<defs>
<clipPath id="clip0_17_4">
<rect width="1972" height="604" fill="white"/>
</clipPath>
</defs>
</svg>
